<svg width="485" height="485" xmlns="http://www.w3.org/2000/svg" xml:space="preserve" version="1.1">

 <g>
  <title>Layer 1</title>
  <g id="svg_1">
   <path fill="#ffffff" id="svg_2" d="m413.974,71.026c-45.803,-45.801 -106.7,-71.026 -171.474,-71.026s-125.671,25.225 -171.474,71.026c-45.801,45.803 -71.026,106.7 -71.026,171.474s25.225,125.671 71.026,171.474c45.803,45.801 106.7,71.026 171.474,71.026s125.671,-25.225 171.474,-71.026c45.801,-45.803 71.026,-106.7 71.026,-171.474s-25.225,-125.671 -71.026,-171.474zm-171.474,383.974c-117.173,0 -212.5,-95.327 -212.5,-212.5s95.327,-212.5 212.5,-212.5s212.5,95.327 212.5,212.5s-95.327,212.5 -212.5,212.5z"/>
   <polygon fill="#ffffff" id="svg_3" points="181.062,336.575 343.938,242.5 181.062,148.425  "/>
  </g>
  <g id="svg_4"/>
  <g id="svg_5"/>
  <g id="svg_6"/>
  <g id="svg_7"/>
  <g id="svg_8"/>
  <g id="svg_9"/>
  <g id="svg_10"/>
  <g id="svg_11"/>
  <g id="svg_12"/>
  <g id="svg_13"/>
  <g id="svg_14"/>
  <g id="svg_15"/>
  <g id="svg_16"/>
  <g id="svg_17"/>
  <g id="svg_18"/>
 </g>
</svg>